<mxfile host="Electron" agent="Mozilla/5.0 (Windows NT 10.0; Win64; x64) AppleWebKit/537.36 (KHTML, like Gecko) draw.io/28.1.2 Chrome/138.0.7204.243 Electron/37.4.0 Safari/537.36" version="28.1.2">
  <diagram name="Page-1" id="IOm4iTDVq8QLSS1ZveDJ">
    <mxGraphModel dx="1042" dy="708" grid="1" gridSize="10" guides="1" tooltips="1" connect="1" arrows="1" fold="1" page="1" pageScale="1" pageWidth="827" pageHeight="1169" math="0" shadow="0">
      <root>
        <mxCell id="0" />
        <mxCell id="1" parent="0" />
        <mxCell id="tRyP_aMxS73FmC8LDNzy-54" style="edgeStyle=orthogonalEdgeStyle;rounded=0;orthogonalLoop=1;jettySize=auto;html=1;curved=1;" edge="1" parent="1" source="tRyP_aMxS73FmC8LDNzy-9" target="tRyP_aMxS73FmC8LDNzy-26">
          <mxGeometry relative="1" as="geometry">
            <Array as="points">
              <mxPoint x="140" y="145" />
            </Array>
          </mxGeometry>
        </mxCell>
        <mxCell id="tRyP_aMxS73FmC8LDNzy-9" value="" style="rounded=0;whiteSpace=wrap;html=1;strokeColor=none;fillColor=light-dark(#03177c, #ededed);" vertex="1" parent="1">
          <mxGeometry x="270" y="108" width="200" height="150" as="geometry" />
        </mxCell>
        <mxCell id="tRyP_aMxS73FmC8LDNzy-12" value="&lt;font style=&quot;font-size: 15px;&quot;&gt;organizer of meeting&amp;nbsp;&lt;/font&gt;&lt;div&gt;&lt;font style=&quot;font-size: 15px;&quot;&gt;groups,&amp;nbsp;&lt;span style=&quot;background-color: transparent;&quot;&gt;meetings,&amp;nbsp;&lt;/span&gt;&lt;span style=&quot;background-color: transparent;&quot;&gt;member&lt;/span&gt;&lt;/font&gt;&lt;div&gt;&lt;div&gt;&lt;font style=&quot;font-size: 15px;&quot;&gt;of group, meeting attendee&lt;/font&gt;&lt;/div&gt;&lt;/div&gt;&lt;/div&gt;" style="text;html=1;align=center;verticalAlign=middle;resizable=0;points=[];autosize=1;strokeColor=none;fillColor=none;fontColor=light-dark(#ffffff, #ededed);" vertex="1" parent="1">
          <mxGeometry x="270" y="188" width="200" height="70" as="geometry" />
        </mxCell>
        <mxCell id="tRyP_aMxS73FmC8LDNzy-13" value="" style="sketch=0;pointerEvents=1;shadow=0;dashed=0;html=1;strokeColor=none;fillColor=light-dark(#ffffff, #a8a8a8);labelPosition=center;verticalLabelPosition=bottom;verticalAlign=top;outlineConnect=0;align=center;shape=mxgraph.office.users.user;" vertex="1" parent="1">
          <mxGeometry x="344.25" y="118" width="51.5" height="50" as="geometry" />
        </mxCell>
        <mxCell id="tRyP_aMxS73FmC8LDNzy-14" value="&lt;font style=&quot;font-size: 18px;&quot;&gt;&lt;b&gt;Member&lt;/b&gt;&lt;/font&gt;" style="text;html=1;align=center;verticalAlign=middle;resizable=0;points=[];autosize=1;strokeColor=none;fillColor=none;fontColor=light-dark(#ffffff, #ededed);" vertex="1" parent="1">
          <mxGeometry x="325" y="158" width="90" height="40" as="geometry" />
        </mxCell>
        <mxCell id="tRyP_aMxS73FmC8LDNzy-48" style="rounded=0;orthogonalLoop=1;jettySize=auto;html=1;" edge="1" parent="1" source="tRyP_aMxS73FmC8LDNzy-15" target="tRyP_aMxS73FmC8LDNzy-21">
          <mxGeometry relative="1" as="geometry" />
        </mxCell>
        <mxCell id="tRyP_aMxS73FmC8LDNzy-15" value="" style="rounded=0;whiteSpace=wrap;html=1;strokeColor=none;fillColor=light-dark(#03177c, #ededed);" vertex="1" parent="1">
          <mxGeometry x="400.75" y="520" width="200" height="110" as="geometry" />
        </mxCell>
        <mxCell id="tRyP_aMxS73FmC8LDNzy-16" value="&lt;span style=&quot;font-size: 15px;&quot;&gt;Administrator of the system&lt;/span&gt;" style="text;html=1;align=center;verticalAlign=middle;resizable=0;points=[];autosize=1;strokeColor=none;fillColor=none;fontColor=light-dark(#ffffff, #ededed);" vertex="1" parent="1">
          <mxGeometry x="395.75" y="604.5" width="210" height="30" as="geometry" />
        </mxCell>
        <mxCell id="tRyP_aMxS73FmC8LDNzy-17" value="" style="sketch=0;pointerEvents=1;shadow=0;dashed=0;html=1;strokeColor=none;fillColor=light-dark(#ffffff, #a8a8a8);labelPosition=center;verticalLabelPosition=bottom;verticalAlign=top;outlineConnect=0;align=center;shape=mxgraph.office.users.user;" vertex="1" parent="1">
          <mxGeometry x="475" y="530" width="51.5" height="50" as="geometry" />
        </mxCell>
        <mxCell id="tRyP_aMxS73FmC8LDNzy-18" value="&lt;font style=&quot;font-size: 18px;&quot;&gt;&lt;b&gt;Administrator&lt;/b&gt;&lt;/font&gt;" style="text;html=1;align=center;verticalAlign=middle;resizable=0;points=[];autosize=1;strokeColor=none;fillColor=none;fontColor=light-dark(#ffffff, #ededed);" vertex="1" parent="1">
          <mxGeometry x="430.75" y="570" width="140" height="40" as="geometry" />
        </mxCell>
        <mxCell id="tRyP_aMxS73FmC8LDNzy-20" value="" style="rounded=0;whiteSpace=wrap;html=1;strokeColor=#001DBC;fillColor=#0050ef;fontColor=#ffffff;" vertex="1" parent="1">
          <mxGeometry x="305" y="360" width="130" height="40" as="geometry" />
        </mxCell>
        <mxCell id="tRyP_aMxS73FmC8LDNzy-44" style="rounded=0;orthogonalLoop=1;jettySize=auto;html=1;" edge="1" parent="1" source="tRyP_aMxS73FmC8LDNzy-21" target="tRyP_aMxS73FmC8LDNzy-24">
          <mxGeometry relative="1" as="geometry" />
        </mxCell>
        <mxCell id="tRyP_aMxS73FmC8LDNzy-50" style="rounded=0;orthogonalLoop=1;jettySize=auto;html=1;" edge="1" parent="1" source="tRyP_aMxS73FmC8LDNzy-21" target="tRyP_aMxS73FmC8LDNzy-25">
          <mxGeometry relative="1" as="geometry" />
        </mxCell>
        <mxCell id="tRyP_aMxS73FmC8LDNzy-21" value="&lt;font style=&quot;font-size: 18px;&quot;&gt;&lt;b&gt;My meetings&lt;/b&gt;&lt;/font&gt;" style="text;html=1;align=center;verticalAlign=middle;resizable=0;points=[];autosize=1;strokeColor=none;fillColor=none;fontColor=light-dark(#ffffff, #ededed);" vertex="1" parent="1">
          <mxGeometry x="305" y="360" width="130" height="40" as="geometry" />
        </mxCell>
        <mxCell id="tRyP_aMxS73FmC8LDNzy-23" value="" style="rounded=0;whiteSpace=wrap;html=1;strokeColor=#23445d;fillColor=light-dark(#8d8896, #39454e);" vertex="1" parent="1">
          <mxGeometry x="595" y="400" width="130" height="40" as="geometry" />
        </mxCell>
        <mxCell id="tRyP_aMxS73FmC8LDNzy-42" style="edgeStyle=orthogonalEdgeStyle;rounded=0;orthogonalLoop=1;jettySize=auto;html=1;curved=1;" edge="1" parent="1" source="tRyP_aMxS73FmC8LDNzy-24" target="tRyP_aMxS73FmC8LDNzy-9">
          <mxGeometry relative="1" as="geometry">
            <Array as="points">
              <mxPoint x="630" y="145" />
            </Array>
          </mxGeometry>
        </mxCell>
        <mxCell id="tRyP_aMxS73FmC8LDNzy-46" style="rounded=0;orthogonalLoop=1;jettySize=auto;html=1;" edge="1" parent="1" source="tRyP_aMxS73FmC8LDNzy-24" target="tRyP_aMxS73FmC8LDNzy-15">
          <mxGeometry relative="1" as="geometry" />
        </mxCell>
        <mxCell id="tRyP_aMxS73FmC8LDNzy-24" value="&lt;font style=&quot;font-size: 18px;&quot;&gt;&lt;b&gt;Email Service&lt;/b&gt;&lt;/font&gt;" style="text;html=1;align=center;verticalAlign=middle;resizable=0;points=[];autosize=1;strokeColor=none;fillColor=none;fontColor=light-dark(#ffffff, #ededed);" vertex="1" parent="1">
          <mxGeometry x="590" y="400" width="140" height="40" as="geometry" />
        </mxCell>
        <mxCell id="tRyP_aMxS73FmC8LDNzy-52" style="edgeStyle=orthogonalEdgeStyle;rounded=0;orthogonalLoop=1;jettySize=auto;html=1;curved=1;" edge="1" parent="1" source="tRyP_aMxS73FmC8LDNzy-25" target="tRyP_aMxS73FmC8LDNzy-21">
          <mxGeometry relative="1" as="geometry">
            <Array as="points">
              <mxPoint x="160" y="380" />
            </Array>
          </mxGeometry>
        </mxCell>
        <mxCell id="tRyP_aMxS73FmC8LDNzy-25" value="" style="rounded=0;whiteSpace=wrap;html=1;strokeColor=#23445d;fillColor=light-dark(#8d8896, #39454e);" vertex="1" parent="1">
          <mxGeometry x="85" y="480" width="170" height="40" as="geometry" />
        </mxCell>
        <mxCell id="tRyP_aMxS73FmC8LDNzy-26" value="&lt;span style=&quot;font-size: 18px;&quot;&gt;&lt;b&gt;Payment Gateway&lt;/b&gt;&lt;/span&gt;" style="text;html=1;align=center;verticalAlign=middle;resizable=0;points=[];autosize=1;strokeColor=none;fillColor=none;fontColor=light-dark(#ffffff, #ededed);" vertex="1" parent="1">
          <mxGeometry x="80" y="480" width="180" height="40" as="geometry" />
        </mxCell>
        <mxCell id="tRyP_aMxS73FmC8LDNzy-27" value="Legend" style="shape=table;startSize=30;container=1;collapsible=0;childLayout=tableLayout;fontSize=16;align=left;verticalAlign=top;fillColor=none;strokeColor=none;fontColor=#4D4D4D;fontStyle=1;spacingLeft=6;spacing=0;resizable=0;" vertex="1" parent="1">
          <mxGeometry x="630" y="560" width="180" height="150" as="geometry" />
        </mxCell>
        <mxCell id="tRyP_aMxS73FmC8LDNzy-28" value="" style="shape=tableRow;horizontal=0;startSize=0;swimlaneHead=0;swimlaneBody=0;strokeColor=inherit;top=0;left=0;bottom=0;right=0;collapsible=0;dropTarget=0;fillColor=none;points=[[0,0.5],[1,0.5]];portConstraint=eastwest;fontSize=12;" vertex="1" parent="tRyP_aMxS73FmC8LDNzy-27">
          <mxGeometry y="30" width="180" height="30" as="geometry" />
        </mxCell>
        <mxCell id="tRyP_aMxS73FmC8LDNzy-29" value="Person" style="shape=partialRectangle;html=1;whiteSpace=wrap;connectable=0;strokeColor=inherit;overflow=hidden;fillColor=light-dark(#03177c, #9fbce9);top=0;left=0;bottom=0;right=0;pointerEvents=1;fontSize=12;align=left;fontColor=#FFFFFF;gradientColor=none;spacingLeft=10;spacingRight=4;" vertex="1" parent="tRyP_aMxS73FmC8LDNzy-28">
          <mxGeometry width="180" height="30" as="geometry">
            <mxRectangle width="180" height="30" as="alternateBounds" />
          </mxGeometry>
        </mxCell>
        <mxCell id="tRyP_aMxS73FmC8LDNzy-30" value="" style="shape=tableRow;horizontal=0;startSize=0;swimlaneHead=0;swimlaneBody=0;strokeColor=inherit;top=0;left=0;bottom=0;right=0;collapsible=0;dropTarget=0;fillColor=none;points=[[0,0.5],[1,0.5]];portConstraint=eastwest;fontSize=12;" vertex="1" parent="tRyP_aMxS73FmC8LDNzy-27">
          <mxGeometry y="60" width="180" height="30" as="geometry" />
        </mxCell>
        <mxCell id="tRyP_aMxS73FmC8LDNzy-31" value="System" style="shape=partialRectangle;html=1;whiteSpace=wrap;connectable=0;strokeColor=inherit;overflow=hidden;fillColor=light-dark(#0050ef, #77a1e3);top=0;left=0;bottom=0;right=0;pointerEvents=1;fontSize=12;align=left;fontColor=#FFFFFF;gradientColor=none;spacingLeft=10;spacingRight=4;" vertex="1" parent="tRyP_aMxS73FmC8LDNzy-30">
          <mxGeometry width="180" height="30" as="geometry">
            <mxRectangle width="180" height="30" as="alternateBounds" />
          </mxGeometry>
        </mxCell>
        <mxCell id="tRyP_aMxS73FmC8LDNzy-36" value="" style="shape=tableRow;horizontal=0;startSize=0;swimlaneHead=0;swimlaneBody=0;strokeColor=inherit;top=0;left=0;bottom=0;right=0;collapsible=0;dropTarget=0;fillColor=none;points=[[0,0.5],[1,0.5]];portConstraint=eastwest;fontSize=12;" vertex="1" parent="tRyP_aMxS73FmC8LDNzy-27">
          <mxGeometry y="90" width="180" height="30" as="geometry" />
        </mxCell>
        <mxCell id="tRyP_aMxS73FmC8LDNzy-37" value="External Person" style="shape=partialRectangle;html=1;whiteSpace=wrap;connectable=0;strokeColor=inherit;overflow=hidden;fillColor=#6b6477;top=0;left=0;bottom=0;right=0;pointerEvents=1;fontSize=12;align=left;fontColor=#FFFFFF;gradientColor=none;spacingLeft=10;spacingRight=4;" vertex="1" parent="tRyP_aMxS73FmC8LDNzy-36">
          <mxGeometry width="180" height="30" as="geometry">
            <mxRectangle width="180" height="30" as="alternateBounds" />
          </mxGeometry>
        </mxCell>
        <mxCell id="tRyP_aMxS73FmC8LDNzy-38" value="" style="shape=tableRow;horizontal=0;startSize=0;swimlaneHead=0;swimlaneBody=0;strokeColor=inherit;top=0;left=0;bottom=0;right=0;collapsible=0;dropTarget=0;fillColor=none;points=[[0,0.5],[1,0.5]];portConstraint=eastwest;fontSize=12;" vertex="1" parent="tRyP_aMxS73FmC8LDNzy-27">
          <mxGeometry y="120" width="180" height="30" as="geometry" />
        </mxCell>
        <mxCell id="tRyP_aMxS73FmC8LDNzy-39" value="External System" style="shape=partialRectangle;html=1;whiteSpace=wrap;connectable=0;strokeColor=inherit;overflow=hidden;fillColor=#8b8496;top=0;left=0;bottom=0;right=0;pointerEvents=1;fontSize=12;align=left;fontColor=#FFFFFF;gradientColor=none;spacingLeft=10;spacingRight=4;" vertex="1" parent="tRyP_aMxS73FmC8LDNzy-38">
          <mxGeometry width="180" height="30" as="geometry">
            <mxRectangle width="180" height="30" as="alternateBounds" />
          </mxGeometry>
        </mxCell>
        <mxCell id="tRyP_aMxS73FmC8LDNzy-40" style="rounded=0;orthogonalLoop=1;jettySize=auto;html=1;" edge="1" parent="1" source="tRyP_aMxS73FmC8LDNzy-9" target="tRyP_aMxS73FmC8LDNzy-20">
          <mxGeometry relative="1" as="geometry" />
        </mxCell>
        <mxCell id="tRyP_aMxS73FmC8LDNzy-43" value="Send mail" style="text;html=1;align=center;verticalAlign=middle;resizable=0;points=[];autosize=1;strokeColor=none;fillColor=none;" vertex="1" parent="1">
          <mxGeometry x="610" y="228" width="80" height="30" as="geometry" />
        </mxCell>
        <mxCell id="tRyP_aMxS73FmC8LDNzy-45" value="Request email send" style="text;html=1;align=center;verticalAlign=middle;resizable=0;points=[];autosize=1;strokeColor=none;fillColor=none;rotation=10;" vertex="1" parent="1">
          <mxGeometry x="450" y="365" width="130" height="30" as="geometry" />
        </mxCell>
        <mxCell id="tRyP_aMxS73FmC8LDNzy-47" value="Send mail" style="text;html=1;align=center;verticalAlign=middle;resizable=0;points=[];autosize=1;strokeColor=none;fillColor=none;" vertex="1" parent="1">
          <mxGeometry x="590" y="468" width="80" height="30" as="geometry" />
        </mxCell>
        <mxCell id="tRyP_aMxS73FmC8LDNzy-49" value="Manage members,&lt;div&gt;meeting groups,&lt;div&gt;meetings&lt;/div&gt;&lt;/div&gt;" style="text;html=1;align=center;verticalAlign=middle;resizable=0;points=[];autosize=1;strokeColor=none;fillColor=none;" vertex="1" parent="1">
          <mxGeometry x="406.5" y="420" width="120" height="60" as="geometry" />
        </mxCell>
        <mxCell id="tRyP_aMxS73FmC8LDNzy-51" value="Delegate&lt;div&gt;the payment&lt;/div&gt;" style="text;html=1;align=center;verticalAlign=middle;resizable=0;points=[];autosize=1;strokeColor=none;fillColor=none;" vertex="1" parent="1">
          <mxGeometry x="260" y="428" width="90" height="40" as="geometry" />
        </mxCell>
        <mxCell id="tRyP_aMxS73FmC8LDNzy-53" value="Return info about&lt;div&gt;payment&lt;/div&gt;" style="text;html=1;align=center;verticalAlign=middle;resizable=0;points=[];autosize=1;strokeColor=none;fillColor=none;rotation=-40;" vertex="1" parent="1">
          <mxGeometry x="150" y="410" width="120" height="40" as="geometry" />
        </mxCell>
        <mxCell id="tRyP_aMxS73FmC8LDNzy-55" value="Pay in" style="text;html=1;align=center;verticalAlign=middle;resizable=0;points=[];autosize=1;strokeColor=none;fillColor=none;" vertex="1" parent="1">
          <mxGeometry x="140" y="300" width="60" height="30" as="geometry" />
        </mxCell>
      </root>
    </mxGraphModel>
  </diagram>
</mxfile>
